<?xml version="1.0" standalone="no"?>
<!DOCTYPE svg PUBLIC "-//W3C//DTD SVG 20010904//EN"
 "http://www.w3.org/TR/2001/REC-SVG-20010904/DTD/svg10.dtd">
<svg version="1.0" xmlns="http://www.w3.org/2000/svg"
 width="120.000000pt" height="110.000000pt" viewBox="0 0 120.000000 110.000000"
 preserveAspectRatio="xMidYMid meet">

<g transform="translate(0.000000,110.000000) scale(0.100000,-0.100000)"
fill="#000000" stroke="none">
<path d="M311 1064 c-17 -14 -35 -42 -41 -62 -12 -44 -12 -140 -1 -199 l8 -42
-83 -25 c-176 -55 -235 -156 -147 -248 38 -40 91 -71 108 -64 25 9 17 21 -34
54 -51 33 -82 81 -74 113 12 44 110 102 208 123 30 6 30 6 58 -74 l27 -80 -30
-60 c-69 -136 -105 -309 -81 -382 29 -89 109 -108 217 -52 32 17 60 39 62 48
5 24 -19 20 -83 -14 -82 -43 -124 -40 -150 11 -30 57 -7 199 54 333 l31 68 41
-79 c62 -118 126 -210 204 -292 84 -89 153 -131 213 -131 58 0 80 14 103 63
39 88 15 273 -61 463 -35 89 -42 99 -64 91 -12 -5 -8 -22 23 -99 79 -193 104
-375 61 -445 -63 -104 -247 34 -405 302 -31 52 -63 114 -72 138 l-16 44 57 88
57 88 117 -6 c254 -12 478 -89 527 -181 18 -33 18 -35 -1 -67 -11 -18 -39 -43
-64 -56 -57 -31 -67 -40 -53 -54 24 -24 151 65 168 119 17 59 -45 137 -148
186 -106 50 -326 96 -459 96 -27 0 -48 4 -48 9 0 15 166 168 212 195 134 78
194 47 186 -98 -2 -59 0 -71 13 -74 20 -4 29 25 29 96 0 204 -168 209 -370 12
-42 -41 -88 -89 -102 -106 -22 -29 -30 -32 -105 -38 -55 -5 -83 -4 -88 4 -11
17 -18 154 -11 194 16 83 77 98 166 42 30 -19 58 -32 62 -30 17 11 6 33 -29
57 -80 55 -144 62 -192 21z m101 -384 c-20 -32 -40 -59 -44 -60 -6 0 -38 85
-38 101 0 7 35 14 92 17 l27 2 -37 -60z"/>
<path d="M566 589 c-50 -39 -24 -109 41 -109 61 0 85 71 37 109 -15 12 -32 21
-39 21 -7 0 -24 -9 -39 -21z"/>
</g>
</svg>
